<svg xmlns="http://www.w3.org/2000/svg" viewBox="0 0 220 220">
  <g transform="translate(0,53)">
    <path fill="#000000" d="M180.026 20.0303V26.7407H193.344V33.4242H199.999V40.1077H206.682V46.818H213.338V53.5284H220V60.2119H213.391V66.9223H206.742V73.6327H200.06V80.3162H193.404V86.9996H180.052V93.71H166.734V100.42H153.383V107.104H133.362V113.801H80.0292V107.164H66.6776V100.481H46.6569V93.7705H40.0012V87.0602H26.6497V80.3767H19.9672V73.6663H13.3115V66.9828H6.65573V60.2724H0V53.5889H6.60895V46.8785H13.2647V40.1682H19.9471V33.4847H26.6296V26.7743H33.2853V20.0908H46.6035V13.3804H59.955V6.69694H79.9757V0H139.978V6.63642H159.998V13.3199H173.35V20.0303H180.032H180.026ZM66.6576 20.0706H53.2659V26.7877H39.9411V33.4712H33.2853V40.1816H26.6029V46.8651H19.9204V53.5755H13.3449V60.2859H19.9939V66.9694H26.6497V73.6528H33.3321V80.3632H46.6569V87.0736H60.0085V93.6764H66.584V80.3027H59.955V60.2254H53.3595V46.8113H60.0018V26.7339H66.6375C66.6375 24.4411 66.6375 22.2424 66.6375 20.0437H73.2665V13.414H66.6642V20.0639L66.6576 20.0706ZM153.342 20.0706V13.414H146.74V20.0505H153.362V33.4981H159.971V80.3632H153.409V93.6966H160.032V87.0064H173.383V80.3296H186.735V73.6192H193.384V66.9088H200.066V60.2254H206.662V53.5419H200.006V46.8315H193.357V40.1211H186.675V33.4376H173.323V26.7272H166.674V20.0706C162.17 20.0706 157.753 20.0706 153.342 20.0706ZM153.296 73.6528V40.1144H146.653V26.7339H139.971V20.0236H126.646V13.4006H86.6448V20.0908H79.9623V26.7743H73.2799V40.1816H66.6976V73.6865H73.34V87.0669H80.0225V93.7773H93.3473V100.4H126.679V93.71H140.031V87.0265H146.713V73.6461H153.296V73.6528Z"/>
    <path fill="#000000" d="M93.3875 46.8247H99.9764V40.2017H119.99V46.8179H126.613V66.9222H120.024V73.572H100.01V66.9558H93.3875V46.8179V46.8247ZM113.268 60.2252V53.6023H106.732V60.2252H113.268Z"/>
  </g>
</svg>
