<svg preserveAspectRatio="none" width="100%" height="100%" overflow="visible" style="display: block;" viewBox="0 0 1576 1262" fill="none" xmlns="http://www.w3.org/2000/svg">
<g id="Group 15">
<path id="Doublethink" d="M101.48 238.875V228.5H122.23V218.125H132.605V207.75H142.98V187H153.355V145.5H142.98V124.75H132.605V114.375H122.23V104H101.48V93.625H49.6055V238.875H101.48ZM18.4805 270V62.5H111.855V72.875H142.98V83.25H153.355V93.625H163.73V104H174.105V124.75H184.48V207.75H174.105V228.5H163.73V238.875H153.355V249.25H142.98V259.625H111.855V270H18.4805ZM296.012 238.875V228.5H306.387V155.875H296.012V145.5H254.512V155.875H244.137V228.5H254.512V238.875H296.012ZM254.512 270V259.625H233.762V249.25H223.387V228.5H213.012V155.875H223.387V135.125H233.762V124.75H254.512V114.375H296.012V124.75H316.762V135.125H327.137V155.875H337.512V228.5H327.137V249.25H316.762V259.625H296.012V270H254.512ZM388.414 270V259.625H378.039V249.25H367.664V114.375H398.789V228.5H409.164V238.875H440.289V228.5H450.664V218.125H461.039V114.375H492.164V270H461.039V249.25H450.664V259.625H440.289V270H388.414ZM620.555 238.875V228.5H630.93V155.875H620.555V145.5H579.055V155.875H568.68V166.25H558.305V218.125H568.68V228.5H579.055V238.875H620.555ZM527.18 270V62.5H558.305V135.125H568.68V124.75H579.055V114.375H620.555V124.75H641.305V135.125H651.68V155.875H662.055V228.5H651.68V249.25H641.305V259.625H620.555V270H579.055V259.625H568.68V249.25H558.305V270H527.18ZM692.531 270V62.5H723.656V270H692.531ZM849.777 176.625V155.875H839.402V145.5H797.902V155.875H787.527V176.625H849.777ZM797.902 270V259.625H777.152V249.25H766.777V228.5H756.402V155.875H766.777V135.125H777.152V124.75H797.902V114.375H839.402V124.75H860.152V135.125H870.527V155.875H880.902V197.375H787.527V228.5H797.902V238.875H839.402V228.5H849.777V218.125H880.902V238.875H870.527V249.25H860.152V259.625H839.402V270H797.902ZM928.238 270V145.5H907.488V114.375H928.238V72.875H959.363V114.375H1000.86V145.5H959.363V270H928.238ZM1030.04 270V62.5H1061.17V135.125H1071.54V124.75H1081.92V114.375H1123.42V124.75H1144.17V135.125H1154.54V155.875H1164.92V270H1133.79V155.875H1123.42V145.5H1081.92V155.875H1071.54V166.25H1061.17V270H1030.04ZM1198.96 270V114.375H1230.09V270H1198.96ZM1198.96 93.625V62.5H1230.09V93.625H1198.96ZM1266.4 270V114.375H1297.52V135.125H1307.9V124.75H1318.27V114.375H1349.4V124.75H1370.15V135.125H1380.52V155.875H1390.9V270H1359.77V155.875H1349.4V145.5H1318.27V155.875H1307.9V166.25H1297.52V270H1266.4ZM1424.94 270V62.5H1456.07V176.625H1466.44V166.25H1476.82V155.875H1487.19V145.5H1497.57V135.125H1507.94V124.75H1518.32V114.375H1559.82V124.75H1549.44V135.125H1539.07V145.5H1528.69V155.875H1518.32V166.25H1507.94V176.625H1497.57V187H1487.19V197.375H1497.57V207.75H1507.94V218.125H1518.32V228.5H1528.69V238.875H1539.07V249.25H1549.44V259.625H1559.82V270H1518.32V259.625H1507.94V249.25H1497.57V238.875H1487.19V228.5H1476.82V218.125H1466.44V207.75H1456.07V270H1424.94Z" fill="var(--fill-0, #E9E9E9)"/>
<path id="Doublethink_2" d="M101.48 1168.88V1158.5H122.23V1148.12H132.605V1137.75H142.98V1117H153.355V1075.5H142.98V1054.75H132.605V1044.38H122.23V1034H101.48V1023.62H49.6055V1168.88H101.48ZM18.4805 1200V992.5H111.855V1002.88H142.98V1013.25H153.355V1023.62H163.73V1034H174.105V1054.75H184.48V1137.75H174.105V1158.5H163.73V1168.88H153.355V1179.25H142.98V1189.62H111.855V1200H18.4805ZM296.012 1168.88V1158.5H306.387V1085.88H296.012V1075.5H254.512V1085.88H244.137V1158.5H254.512V1168.88H296.012ZM254.512 1200V1189.62H233.762V1179.25H223.387V1158.5H213.012V1085.88H223.387V1065.12H233.762V1054.75H254.512V1044.38H296.012V1054.75H316.762V1065.12H327.137V1085.88H337.512V1158.5H327.137V1179.25H316.762V1189.62H296.012V1200H254.512ZM388.414 1200V1189.62H378.039V1179.25H367.664V1044.38H398.789V1158.5H409.164V1168.88H440.289V1158.5H450.664V1148.12H461.039V1044.38H492.164V1200H461.039V1179.25H450.664V1189.62H440.289V1200H388.414ZM620.555 1168.88V1158.5H630.93V1085.88H620.555V1075.5H579.055V1085.88H568.68V1096.25H558.305V1148.12H568.68V1158.5H579.055V1168.88H620.555ZM527.18 1200V992.5H558.305V1065.12H568.68V1054.75H579.055V1044.38H620.555V1054.75H641.305V1065.12H651.68V1085.88H662.055V1158.5H651.68V1179.25H641.305V1189.62H620.555V1200H579.055V1189.62H568.68V1179.25H558.305V1200H527.18ZM692.531 1200V992.5H723.656V1200H692.531ZM849.777 1106.62V1085.88H839.402V1075.5H797.902V1085.88H787.527V1106.62H849.777ZM797.902 1200V1189.62H777.152V1179.25H766.777V1158.5H756.402V1085.88H766.777V1065.12H777.152V1054.75H797.902V1044.38H839.402V1054.75H860.152V1065.12H870.527V1085.88H880.902V1127.38H787.527V1158.5H797.902V1168.88H839.402V1158.5H849.777V1148.12H880.902V1168.88H870.527V1179.25H860.152V1189.62H839.402V1200H797.902ZM928.238 1200V1075.5H907.488V1044.38H928.238V1002.88H959.363V1044.38H1000.86V1075.5H959.363V1200H928.238ZM1030.04 1200V992.5H1061.17V1065.12H1071.54V1054.75H1081.92V1044.38H1123.42V1054.75H1144.17V1065.12H1154.54V1085.88H1164.92V1200H1133.79V1085.88H1123.42V1075.5H1081.92V1085.88H1071.54V1096.25H1061.17V1200H1030.04ZM1198.96 1200V1044.38H1230.09V1200H1198.96ZM1198.96 1023.62V992.5H1230.09V1023.62H1198.96ZM1266.4 1200V1044.38H1297.52V1065.12H1307.9V1054.75H1318.27V1044.38H1349.4V1054.75H1370.15V1065.12H1380.52V1085.88H1390.9V1200H1359.77V1085.88H1349.4V1075.5H1318.27V1085.88H1307.9V1096.25H1297.52V1200H1266.4ZM1424.94 1200V992.5H1456.07V1106.62H1466.44V1096.25H1476.82V1085.88H1487.19V1075.5H1497.57V1065.12H1507.94V1054.75H1518.32V1044.38H1559.82V1054.75H1549.44V1065.12H1539.07V1075.5H1528.69V1085.88H1518.32V1096.25H1507.94V1106.62H1497.57V1117H1487.19V1127.38H1497.57V1137.75H1507.94V1148.12H1518.32V1158.5H1528.69V1168.88H1539.07V1179.25H1549.44V1189.62H1559.82V1200H1518.32V1189.62H1507.94V1179.25H1497.57V1168.88H1487.19V1158.5H1476.82V1148.12H1466.44V1137.75H1456.07V1200H1424.94Z" fill="var(--fill-0, #E9E9E9)"/>
<path id="Doublethink_3" d="M101.48 393.875V383.5H122.23V373.125H132.605V362.75H142.98V342H153.355V300.5H142.98V279.75H132.605V269.375H122.23V259H101.48V248.625H49.6055V393.875H101.48ZM18.4805 425V217.5H111.855V227.875H142.98V238.25H153.355V248.625H163.73V259H174.105V279.75H184.48V362.75H174.105V383.5H163.73V393.875H153.355V404.25H142.98V414.625H111.855V425H18.4805ZM296.012 393.875V383.5H306.387V310.875H296.012V300.5H254.512V310.875H244.137V383.5H254.512V393.875H296.012ZM254.512 425V414.625H233.762V404.25H223.387V383.5H213.012V310.875H223.387V290.125H233.762V279.75H254.512V269.375H296.012V279.75H316.762V290.125H327.137V310.875H337.512V383.5H327.137V404.25H316.762V414.625H296.012V425H254.512ZM388.414 425V414.625H378.039V404.25H367.664V269.375H398.789V383.5H409.164V393.875H440.289V383.5H450.664V373.125H461.039V269.375H492.164V425H461.039V404.25H450.664V414.625H440.289V425H388.414ZM620.555 393.875V383.5H630.93V310.875H620.555V300.5H579.055V310.875H568.68V321.25H558.305V373.125H568.68V383.5H579.055V393.875H620.555ZM527.18 425V217.5H558.305V290.125H568.68V279.75H579.055V269.375H620.555V279.75H641.305V290.125H651.68V310.875H662.055V383.5H651.68V404.25H641.305V414.625H620.555V425H579.055V414.625H568.68V404.25H558.305V425H527.18ZM692.531 425V217.5H723.656V425H692.531ZM849.777 331.625V310.875H839.402V300.5H797.902V310.875H787.527V331.625H849.777ZM797.902 425V414.625H777.152V404.25H766.777V383.5H756.402V310.875H766.777V290.125H777.152V279.75H797.902V269.375H839.402V279.75H860.152V290.125H870.527V310.875H880.902V352.375H787.527V383.5H797.902V393.875H839.402V383.5H849.777V373.125H880.902V393.875H870.527V404.25H860.152V414.625H839.402V425H797.902ZM928.238 425V300.5H907.488V269.375H928.238V227.875H959.363V269.375H1000.86V300.5H959.363V425H928.238ZM1030.04 425V217.5H1061.17V290.125H1071.54V279.75H1081.92V269.375H1123.42V279.75H1144.17V290.125H1154.54V310.875H1164.92V425H1133.79V310.875H1123.42V300.5H1081.92V310.875H1071.54V321.25H1061.17V425H1030.04ZM1198.96 425V269.375H1230.09V425H1198.96ZM1198.96 248.625V217.5H1230.09V248.625H1198.96ZM1266.4 425V269.375H1297.52V290.125H1307.9V279.75H1318.27V269.375H1349.4V279.75H1370.15V290.125H1380.52V310.875H1390.9V425H1359.77V310.875H1349.4V300.5H1318.27V310.875H1307.9V321.25H1297.52V425H1266.4ZM1424.94 425V217.5H1456.07V331.625H1466.44V321.25H1476.82V310.875H1487.19V300.5H1497.57V290.125H1507.94V279.75H1518.32V269.375H1559.82V279.75H1549.44V290.125H1539.07V300.5H1528.69V310.875H1518.32V321.25H1507.94V331.625H1497.57V342H1487.19V352.375H1497.57V362.75H1507.94V373.125H1518.32V383.5H1528.69V393.875H1539.07V404.25H1549.44V414.625H1559.82V425H1518.32V414.625H1507.94V404.25H1497.57V393.875H1487.19V383.5H1476.82V373.125H1466.44V362.75H1456.07V425H1424.94Z" fill="var(--fill-0, #E9E9E9)"/>
<path id="Doublethink_4" d="M101.48 1013.88V1003.5H122.23V993.125H132.605V982.75H142.98V962H153.355V920.5H142.98V899.75H132.605V889.375H122.23V879H101.48V868.625H49.6055V1013.88H101.48ZM18.4805 1045V837.5H111.855V847.875H142.98V858.25H153.355V868.625H163.73V879H174.105V899.75H184.48V982.75H174.105V1003.5H163.73V1013.88H153.355V1024.25H142.98V1034.62H111.855V1045H18.4805ZM296.012 1013.88V1003.5H306.387V930.875H296.012V920.5H254.512V930.875H244.137V1003.5H254.512V1013.88H296.012ZM254.512 1045V1034.62H233.762V1024.25H223.387V1003.5H213.012V930.875H223.387V910.125H233.762V899.75H254.512V889.375H296.012V899.75H316.762V910.125H327.137V930.875H337.512V1003.5H327.137V1024.25H316.762V1034.62H296.012V1045H254.512ZM388.414 1045V1034.62H378.039V1024.25H367.664V889.375H398.789V1003.5H409.164V1013.88H440.289V1003.5H450.664V993.125H461.039V889.375H492.164V1045H461.039V1024.25H450.664V1034.62H440.289V1045H388.414ZM620.555 1013.88V1003.5H630.93V930.875H620.555V920.5H579.055V930.875H568.68V941.25H558.305V993.125H568.68V1003.5H579.055V1013.88H620.555ZM527.18 1045V837.5H558.305V910.125H568.68V899.75H579.055V889.375H620.555V899.75H641.305V910.125H651.68V930.875H662.055V1003.5H651.68V1024.25H641.305V1034.62H620.555V1045H579.055V1034.62H568.68V1024.25H558.305V1045H527.18ZM692.531 1045V837.5H723.656V1045H692.531ZM849.777 951.625V930.875H839.402V920.5H797.902V930.875H787.527V951.625H849.777ZM797.902 1045V1034.62H777.152V1024.25H766.777V1003.5H756.402V930.875H766.777V910.125H777.152V899.75H797.902V889.375H839.402V899.75H860.152V910.125H870.527V930.875H880.902V972.375H787.527V1003.5H797.902V1013.88H839.402V1003.5H849.777V993.125H880.902V1013.88H870.527V1024.25H860.152V1034.62H839.402V1045H797.902ZM928.238 1045V920.5H907.488V889.375H928.238V847.875H959.363V889.375H1000.86V920.5H959.363V1045H928.238ZM1030.04 1045V837.5H1061.17V910.125H1071.54V899.75H1081.92V889.375H1123.42V899.75H1144.17V910.125H1154.54V930.875H1164.92V1045H1133.79V930.875H1123.42V920.5H1081.92V930.875H1071.54V941.25H1061.17V1045H1030.04ZM1198.96 1045V889.375H1230.09V1045H1198.96ZM1198.96 868.625V837.5H1230.09V868.625H1198.96ZM1266.4 1045V889.375H1297.52V910.125H1307.9V899.75H1318.27V889.375H1349.4V899.75H1370.15V910.125H1380.52V930.875H1390.9V1045H1359.77V930.875H1349.4V920.5H1318.27V930.875H1307.9V941.25H1297.52V1045H1266.4ZM1424.94 1045V837.5H1456.07V951.625H1466.44V941.25H1476.82V930.875H1487.19V920.5H1497.57V910.125H1507.94V899.75H1518.32V889.375H1559.82V899.75H1549.44V910.125H1539.07V920.5H1528.69V930.875H1518.32V941.25H1507.94V951.625H1497.57V962H1487.19V972.375H1497.57V982.75H1507.94V993.125H1518.32V1003.5H1528.69V1013.88H1539.07V1024.25H1549.44V1034.62H1559.82V1045H1518.32V1034.62H1507.94V1024.25H1497.57V1013.88H1487.19V1003.5H1476.82V993.125H1466.44V982.75H1456.07V1045H1424.94Z" fill="var(--fill-0, #E9E9E9)"/>
<path id="Doublethink_5" d="M101.48 548.875V538.5H122.23V528.125H132.605V517.75H142.98V497H153.355V455.5H142.98V434.75H132.605V424.375H122.23V414H101.48V403.625H49.6055V548.875H101.48ZM18.4805 580V372.5H111.855V382.875H142.98V393.25H153.355V403.625H163.73V414H174.105V434.75H184.48V517.75H174.105V538.5H163.73V548.875H153.355V559.25H142.98V569.625H111.855V580H18.4805ZM296.012 548.875V538.5H306.387V465.875H296.012V455.5H254.512V465.875H244.137V538.5H254.512V548.875H296.012ZM254.512 580V569.625H233.762V559.25H223.387V538.5H213.012V465.875H223.387V445.125H233.762V434.75H254.512V424.375H296.012V434.75H316.762V445.125H327.137V465.875H337.512V538.5H327.137V559.25H316.762V569.625H296.012V580H254.512ZM388.414 580V569.625H378.039V559.25H367.664V424.375H398.789V538.5H409.164V548.875H440.289V538.5H450.664V528.125H461.039V424.375H492.164V580H461.039V559.25H450.664V569.625H440.289V580H388.414ZM620.555 548.875V538.5H630.93V465.875H620.555V455.5H579.055V465.875H568.68V476.25H558.305V528.125H568.68V538.5H579.055V548.875H620.555ZM527.18 580V372.5H558.305V445.125H568.68V434.75H579.055V424.375H620.555V434.75H641.305V445.125H651.68V465.875H662.055V538.5H651.68V559.25H641.305V569.625H620.555V580H579.055V569.625H568.68V559.25H558.305V580H527.18ZM692.531 580V372.5H723.656V580H692.531ZM849.777 486.625V465.875H839.402V455.5H797.902V465.875H787.527V486.625H849.777ZM797.902 580V569.625H777.152V559.25H766.777V538.5H756.402V465.875H766.777V445.125H777.152V434.75H797.902V424.375H839.402V434.75H860.152V445.125H870.527V465.875H880.902V507.375H787.527V538.5H797.902V548.875H839.402V538.5H849.777V528.125H880.902V548.875H870.527V559.25H860.152V569.625H839.402V580H797.902ZM928.238 580V455.5H907.488V424.375H928.238V382.875H959.363V424.375H1000.86V455.5H959.363V580H928.238ZM1030.04 580V372.5H1061.17V445.125H1071.54V434.75H1081.92V424.375H1123.42V434.75H1144.17V445.125H1154.54V465.875H1164.92V580H1133.79V465.875H1123.42V455.5H1081.92V465.875H1071.54V476.25H1061.17V580H1030.04ZM1198.96 580V424.375H1230.09V580H1198.96ZM1198.96 403.625V372.5H1230.09V403.625H1198.96ZM1266.4 580V424.375H1297.52V445.125H1307.9V434.75H1318.27V424.375H1349.4V434.75H1370.15V445.125H1380.52V465.875H1390.9V580H1359.77V465.875H1349.4V455.5H1318.27V465.875H1307.9V476.25H1297.52V580H1266.4ZM1424.94 580V372.5H1456.07V486.625H1466.44V476.25H1476.82V465.875H1487.19V455.5H1497.57V445.125H1507.94V434.75H1518.32V424.375H1559.82V434.75H1549.44V445.125H1539.07V455.5H1528.69V465.875H1518.32V476.25H1507.94V486.625H1497.57V497H1487.19V507.375H1497.57V517.75H1507.94V528.125H1518.32V538.5H1528.69V548.875H1539.07V559.25H1549.44V569.625H1559.82V580H1518.32V569.625H1507.94V559.25H1497.57V548.875H1487.19V538.5H1476.82V528.125H1466.44V517.75H1456.07V580H1424.94Z" fill="var(--fill-0, #E9E9E9)"/>
<path id="Doublethink_6" d="M101.48 858.875V848.5H122.23V838.125H132.605V827.75H142.98V807H153.355V765.5H142.98V744.75H132.605V734.375H122.23V724H101.48V713.625H49.6055V858.875H101.48ZM18.4805 890V682.5H111.855V692.875H142.98V703.25H153.355V713.625H163.73V724H174.105V744.75H184.48V827.75H174.105V848.5H163.73V858.875H153.355V869.25H142.98V879.625H111.855V890H18.4805ZM296.012 858.875V848.5H306.387V775.875H296.012V765.5H254.512V775.875H244.137V848.5H254.512V858.875H296.012ZM254.512 890V879.625H233.762V869.25H223.387V848.5H213.012V775.875H223.387V755.125H233.762V744.75H254.512V734.375H296.012V744.75H316.762V755.125H327.137V775.875H337.512V848.5H327.137V869.25H316.762V879.625H296.012V890H254.512ZM388.414 890V879.625H378.039V869.25H367.664V734.375H398.789V848.5H409.164V858.875H440.289V848.5H450.664V838.125H461.039V734.375H492.164V890H461.039V869.25H450.664V879.625H440.289V890H388.414ZM620.555 858.875V848.5H630.93V775.875H620.555V765.5H579.055V775.875H568.68V786.25H558.305V838.125H568.68V848.5H579.055V858.875H620.555ZM527.18 890V682.5H558.305V755.125H568.68V744.75H579.055V734.375H620.555V744.75H641.305V755.125H651.68V775.875H662.055V848.5H651.68V869.25H641.305V879.625H620.555V890H579.055V879.625H568.68V869.25H558.305V890H527.18ZM692.531 890V682.5H723.656V890H692.531ZM849.777 796.625V775.875H839.402V765.5H797.902V775.875H787.527V796.625H849.777ZM797.902 890V879.625H777.152V869.25H766.777V848.5H756.402V775.875H766.777V755.125H777.152V744.75H797.902V734.375H839.402V744.75H860.152V755.125H870.527V775.875H880.902V817.375H787.527V848.5H797.902V858.875H839.402V848.5H849.777V838.125H880.902V858.875H870.527V869.25H860.152V879.625H839.402V890H797.902ZM928.238 890V765.5H907.488V734.375H928.238V692.875H959.363V734.375H1000.86V765.5H959.363V890H928.238ZM1030.04 890V682.5H1061.17V755.125H1071.54V744.75H1081.92V734.375H1123.42V744.75H1144.17V755.125H1154.54V775.875H1164.92V890H1133.79V775.875H1123.42V765.5H1081.92V775.875H1071.54V786.25H1061.17V890H1030.04ZM1198.96 890V734.375H1230.09V890H1198.96ZM1198.96 713.625V682.5H1230.09V713.625H1198.96ZM1266.4 890V734.375H1297.52V755.125H1307.9V744.75H1318.27V734.375H1349.4V744.75H1370.15V755.125H1380.52V775.875H1390.9V890H1359.77V775.875H1349.4V765.5H1318.27V775.875H1307.9V786.25H1297.52V890H1266.4ZM1424.94 890V682.5H1456.07V796.625H1466.44V786.25H1476.82V775.875H1487.19V765.5H1497.57V755.125H1507.94V744.75H1518.32V734.375H1559.82V744.75H1549.44V755.125H1539.07V765.5H1528.69V775.875H1518.32V786.25H1507.94V796.625H1497.57V807H1487.19V817.375H1497.57V827.75H1507.94V838.125H1518.32V848.5H1528.69V858.875H1539.07V869.25H1549.44V879.625H1559.82V890H1518.32V879.625H1507.94V869.25H1497.57V858.875H1487.19V848.5H1476.82V838.125H1466.44V827.75H1456.07V890H1424.94Z" fill="var(--fill-0, #E9E9E9)"/>
<path id="Doublethink_7" d="M101.48 703.875V693.5H122.23V683.125H132.605V672.75H142.98V652H153.355V610.5H142.98V589.75H132.605V579.375H122.23V569H101.48V558.625H49.6055V703.875H101.48ZM18.4805 735V527.5H111.855V537.875H142.98V548.25H153.355V558.625H163.73V569H174.105V589.75H184.48V672.75H174.105V693.5H163.73V703.875H153.355V714.25H142.98V724.625H111.855V735H18.4805ZM296.012 703.875V693.5H306.387V620.875H296.012V610.5H254.512V620.875H244.137V693.5H254.512V703.875H296.012ZM254.512 735V724.625H233.762V714.25H223.387V693.5H213.012V620.875H223.387V600.125H233.762V589.75H254.512V579.375H296.012V589.75H316.762V600.125H327.137V620.875H337.512V693.5H327.137V714.25H316.762V724.625H296.012V735H254.512ZM388.414 735V724.625H378.039V714.25H367.664V579.375H398.789V693.5H409.164V703.875H440.289V693.5H450.664V683.125H461.039V579.375H492.164V735H461.039V714.25H450.664V724.625H440.289V735H388.414ZM620.555 703.875V693.5H630.93V620.875H620.555V610.5H579.055V620.875H568.68V631.25H558.305V683.125H568.68V693.5H579.055V703.875H620.555ZM527.18 735V527.5H558.305V600.125H568.68V589.75H579.055V579.375H620.555V589.75H641.305V600.125H651.68V620.875H662.055V693.5H651.68V714.25H641.305V724.625H620.555V735H579.055V724.625H568.68V714.25H558.305V735H527.18ZM692.531 735V527.5H723.656V735H692.531ZM849.777 641.625V620.875H839.402V610.5H797.902V620.875H787.527V641.625H849.777ZM797.902 735V724.625H777.152V714.25H766.777V693.5H756.402V620.875H766.777V600.125H777.152V589.75H797.902V579.375H839.402V589.75H860.152V600.125H870.527V620.875H880.902V662.375H787.527V693.5H797.902V703.875H839.402V693.5H849.777V683.125H880.902V703.875H870.527V714.25H860.152V724.625H839.402V735H797.902ZM928.238 735V610.5H907.488V579.375H928.238V537.875H959.363V579.375H1000.86V610.5H959.363V735H928.238ZM1030.04 735V527.5H1061.17V600.125H1071.54V589.75H1081.92V579.375H1123.42V589.75H1144.17V600.125H1154.54V620.875H1164.92V735H1133.79V620.875H1123.42V610.5H1081.92V620.875H1071.54V631.25H1061.17V735H1030.04ZM1198.96 735V579.375H1230.09V735H1198.96ZM1198.96 558.625V527.5H1230.09V558.625H1198.96ZM1266.4 735V579.375H1297.52V600.125H1307.9V589.75H1318.27V579.375H1349.4V589.75H1370.15V600.125H1380.52V620.875H1390.9V735H1359.77V620.875H1349.4V610.5H1318.27V620.875H1307.9V631.25H1297.52V735H1266.4ZM1424.94 735V527.5H1456.07V641.625H1466.44V631.25H1476.82V620.875H1487.19V610.5H1497.57V600.125H1507.94V589.75H1518.32V579.375H1559.82V589.75H1549.44V600.125H1539.07V610.5H1528.69V620.875H1518.32V631.25H1507.94V641.625H1497.57V652H1487.19V662.375H1497.57V672.75H1507.94V683.125H1518.32V693.5H1528.69V703.875H1539.07V714.25H1549.44V724.625H1559.82V735H1518.32V724.625H1507.94V714.25H1497.57V703.875H1487.19V693.5H1476.82V683.125H1466.44V672.75H1456.07V735H1424.94Z" fill="var(--fill-0, #E9E9E9)"/>
</g>
</svg>
