<svg preserveAspectRatio="none" width="100%" height="100%" overflow="visible" style="display: block;" viewBox="0 0 662.487 826.987" fill="none" xmlns="http://www.w3.org/2000/svg">
<g id="Group 4">
<path id="Vector" d="M295.227 404.969C295.408 401.166 295.589 397.333 295.77 393.166C293.777 393.166 292.146 393.166 290.576 393.166C289.851 390.763 289.67 380.207 290.244 375.705C291.844 375.705 293.505 375.705 295.499 375.705C295.499 369.895 295.499 364.358 295.499 358.548C297.552 358.426 299.304 358.335 301.267 358.213C301.388 356.327 301.508 354.563 301.629 352.646C303.441 352.555 305.102 352.464 307.035 352.342C307.035 340.874 307.035 329.588 307.035 318.028C309.058 317.876 310.81 317.755 312.833 317.633C312.833 313.922 312.833 310.332 312.833 306.499C314.766 306.499 316.427 306.499 318.45 306.499C318.45 312.096 318.45 317.694 318.45 323.595C322.407 323.595 325.97 323.595 329.866 323.595C329.866 325.542 329.866 327.215 329.866 329.132C331.92 329.132 333.671 329.132 335.815 329.132C335.815 325.481 335.815 321.8 335.815 317.907C337.778 317.907 339.379 317.907 341.221 317.907C341.221 315.96 341.221 314.226 341.221 312.279C339.53 312.188 337.869 312.096 336.027 312.005C336.027 310.089 336.027 308.324 336.027 306.408C337.839 306.317 339.53 306.225 341.312 306.134C341.312 298.499 341.312 291.046 341.312 283.258C339.56 283.258 337.929 283.258 336.057 283.258C336.057 281.281 336.057 279.608 336.057 277.6C337.658 277.6 339.319 277.6 340.859 277.6C341.584 275.197 341.765 264.611 341.191 260.139C337.658 260.139 334.094 260.139 330.108 260.139C330.108 256.184 330.108 252.503 330.108 248.64C326.121 248.64 322.558 248.64 318.571 248.64C318.571 260.078 318.571 271.455 318.571 282.984C316.608 283.076 315.008 283.136 313.014 283.228C313.014 286.909 313.014 290.589 313.014 294.453C310.87 294.605 309.119 294.727 307.095 294.848C307.095 298.59 307.095 302.21 307.095 306.012C305.163 306.012 303.502 306.012 301.539 306.012C301.478 304.37 301.388 302.697 301.297 300.719C299.455 300.598 297.703 300.506 295.77 300.385C295.77 292.81 295.77 285.357 295.77 277.6C297.492 277.478 299.243 277.387 301.357 277.265C301.357 271.546 301.357 265.919 301.357 260.169C303.381 260.048 305.042 259.956 306.975 259.835C306.975 256.093 306.975 252.473 306.975 248.64C308.998 248.488 310.75 248.366 312.773 248.245C312.773 244.533 312.773 240.913 312.773 236.989C314.706 236.989 316.367 236.989 318.36 236.989C318.36 231.179 318.36 225.642 318.36 219.741C324.249 219.741 329.806 219.741 335.574 219.741C335.574 217.612 335.574 215.847 335.574 213.9C333.762 213.809 332.101 213.718 329.987 213.596C329.957 208.029 329.926 202.523 330.017 196.683C331.889 196.561 333.641 196.47 335.755 196.348C335.755 190.629 335.755 185.032 335.755 179.252C337.778 179.13 339.439 179.039 341.402 178.917C341.402 169.396 341.402 160.026 341.402 150.414C343.365 150.322 345.057 150.231 347.171 150.14C347.412 142.596 347.14 135.051 347.322 127.325C349.164 127.203 350.825 127.112 352.788 126.99C352.788 115.583 352.788 104.266 352.788 92.6458C354.811 92.5241 356.563 92.4328 358.586 92.3111C358.586 73.2073 358.586 54.1948 358.586 34.7867C362.512 34.6042 366.166 34.665 370.122 34.7563C370.122 44.3386 370.122 53.708 370.122 63.2904C372.085 63.412 373.746 63.5033 375.77 63.625C375.77 73.1769 375.77 82.6375 375.77 92.3111C377.823 92.4024 379.484 92.4937 381.568 92.6153C381.568 98.2431 381.568 103.84 381.568 109.59C383.561 109.681 385.132 109.742 387.095 109.833C387.518 115.461 387.034 121.089 387.367 126.96C389.209 127.081 390.96 127.203 393.014 127.355C393.014 132.952 393.014 138.489 393.014 144.238C394.977 144.33 396.608 144.421 398.661 144.542C398.661 150.261 398.661 155.859 398.661 161.699C400.715 161.791 402.376 161.882 404.46 161.973C404.46 165.684 404.46 169.365 404.46 173.259C406.513 173.35 408.174 173.442 410.137 173.533C410.137 177.487 410.137 181.29 410.137 185.123C408.386 185.123 406.604 185.123 404.732 185.123C404.732 187.009 404.732 188.652 404.732 190.416C406.634 190.416 408.356 190.416 410.047 190.416C410.047 188.469 410.047 186.766 410.047 185.062C411.919 185.062 413.822 185.062 415.966 185.062C415.966 188.925 415.966 192.515 415.966 196.439C417.899 196.439 419.56 196.439 421.613 196.439C421.613 200.424 421.613 204.105 421.613 207.968C423.667 208.09 425.328 208.151 427.321 208.273C427.412 209.976 427.502 211.649 427.593 213.657C429.254 213.657 430.885 213.657 432.425 213.657C433.21 215.999 433.361 220.806 432.817 225.186C425.388 225.186 417.929 225.186 410.288 225.186C410.198 223.361 410.107 221.688 410.017 219.863C409.171 219.802 408.507 219.741 407.812 219.741C388.122 219.741 368.431 219.741 348.741 219.741C348.258 219.741 347.744 219.832 347.261 219.893C347.171 217.916 347.08 215.969 347.02 214.022C344.996 214.022 343.335 214.022 341.553 214.022C341.553 215.938 341.553 217.672 341.553 219.802C343.607 219.802 345.479 219.802 347.352 219.802C347.352 221.505 347.352 223.209 347.352 225.399C353.633 225.429 359.915 225.399 366.227 225.399C372.569 225.399 378.911 225.399 385.253 225.399C391.564 225.399 397.876 225.399 404.399 225.399C404.49 227.407 404.581 229.08 404.671 231.179C415.996 231.453 427.321 231.118 438.797 231.361C438.888 233.247 438.978 234.921 439.069 236.867C442.783 236.867 446.347 236.867 450.364 236.867C450.424 242.769 450.424 248.366 450.333 254.176C448.37 254.298 446.619 254.42 444.716 254.572C444.626 256.397 444.535 258.07 444.414 259.926C442.602 260.017 440.941 260.108 439.069 260.2C438.978 262.025 438.888 263.728 438.797 265.736C437.015 265.858 435.264 265.949 433.21 266.071C433.21 267.805 433.21 269.478 433.21 271.486C431.277 271.486 429.616 271.486 427.563 271.486C427.381 275.471 427.442 279.151 427.532 283.106C431.307 283.106 434.901 283.106 438.706 283.106C438.706 285.144 438.706 286.909 438.706 288.855C436.894 288.977 435.143 289.099 433.089 289.251C433.089 294.939 433.089 300.476 433.089 306.134C431.126 306.256 429.465 306.347 427.653 306.438C427.653 308.294 427.653 309.997 427.653 311.975C429.314 312.066 430.975 312.157 433.029 312.279C433.029 319.793 433.029 327.337 433.029 335.246C442.814 335.246 452.206 335.246 461.719 335.246C461.719 341.148 461.719 346.684 461.719 352.342C459.877 352.433 458.185 352.525 456.283 352.646C456.283 356.418 456.283 360.099 456.283 363.932C458.095 364.023 459.756 364.115 461.839 364.236C461.839 367.978 461.839 371.689 461.839 375.492C463.893 375.614 465.554 375.705 467.487 375.826C467.487 379.599 467.487 383.188 467.487 387.021C469.51 387.173 471.262 387.264 473.285 387.417C473.285 391.158 473.285 394.778 473.285 398.642C475.218 398.733 476.879 398.794 478.751 398.885C478.751 400.771 478.751 402.505 478.751 404.604C477.06 404.604 475.399 404.604 473.346 404.604C473.527 408.802 472.923 412.696 473.708 416.589C471.745 416.437 469.812 416.285 467.668 416.133C467.668 418.202 467.668 419.875 467.668 421.7C469.54 421.7 471.292 421.7 473.104 421.7C473.315 419.875 473.466 418.202 473.648 416.529C475.309 416.407 476.97 416.285 478.812 416.133C478.902 418.171 478.993 419.844 479.114 421.7C481.016 421.7 482.768 421.7 484.671 421.7C484.761 419.875 484.852 418.202 484.973 416.376C486.815 416.376 488.446 416.376 490.318 416.376C490.409 418.171 490.499 419.844 490.59 421.7C492.462 421.822 494.214 421.943 496.237 422.095C496.237 425.868 496.237 429.457 496.237 433.29C498.17 433.381 499.831 433.473 501.703 433.594C501.703 435.48 501.703 437.214 501.703 439.283C498.049 439.283 494.455 439.283 490.56 439.283C490.56 441.23 490.56 442.903 490.56 444.789C488.597 444.789 486.936 444.789 484.942 444.789C484.942 443.177 484.942 441.534 484.942 439.587C482.889 439.587 481.137 439.587 479.174 439.587C479.174 443.116 479.174 446.736 479.174 450.69C482.375 451.055 485.667 450.812 488.929 450.873C492.251 450.903 495.573 450.873 498.895 450.873C502.217 450.873 505.539 450.873 508.861 450.873C512.183 450.873 515.474 450.873 519.098 450.873C519.098 452.759 519.098 454.432 519.098 456.44C521.061 456.44 522.692 456.44 524.685 456.44C524.806 458.508 524.897 460.242 525.018 462.25C526.86 462.372 528.611 462.493 530.574 462.615C530.665 464.41 530.756 466.083 530.846 467.939C532.628 468.03 534.319 468.151 536.161 468.243C536.282 470.129 536.403 471.893 536.524 473.84C538.366 473.931 540.027 474.023 541.96 474.114C541.96 475.817 541.96 477.49 541.96 479.498C540.269 479.589 538.517 479.711 536.554 479.802C536.433 481.658 536.312 483.453 536.192 485.4C534.41 485.491 532.749 485.582 530.907 485.673C530.907 491.362 530.907 496.868 530.907 502.617C532.628 502.709 534.289 502.8 536.252 502.922C536.252 506.633 536.252 510.223 536.252 514.147C538.275 514.268 540.027 514.36 541.99 514.481C541.99 516.337 541.99 518.101 541.99 520.079C540.208 520.17 538.547 520.261 536.886 520.352C536.252 522.543 536.01 542.955 536.554 548.521C538.608 549.16 549.027 549.343 553.557 548.765C553.557 547.153 553.557 545.479 553.557 543.593C555.52 543.593 557.18 543.593 559.234 543.593C559.234 551.046 559.234 558.59 559.234 566.317C561.288 566.408 562.979 566.5 564.942 566.621C565.063 568.325 565.153 569.998 565.274 571.975C566.965 572.097 568.717 572.219 570.619 572.34C570.619 574.196 570.619 575.869 570.619 577.877C568.958 577.968 567.297 578.059 565.244 578.151C565.244 585.695 565.244 593.239 565.244 600.935C563.13 601.087 561.378 601.209 559.476 601.331C559.476 608.966 559.476 616.419 559.476 624.055C561.348 624.176 563.13 624.298 565.153 624.45C565.153 647.478 565.153 670.354 565.153 693.473C567.086 693.564 568.747 693.656 570.74 693.747C570.74 718.661 570.74 743.453 570.74 768.459C572.794 768.58 574.545 768.702 576.478 768.824C576.569 770.649 576.659 772.352 576.75 774.33C578.441 774.451 580.102 774.543 582.005 774.664C582.005 776.398 582.005 778.132 582.005 780.079C580.283 780.17 578.622 780.262 576.841 780.353C576.75 781.205 576.629 781.874 576.629 782.574C576.629 797.084 576.629 811.564 576.629 826.074C576.629 826.379 576.69 826.683 576.72 826.987C452.357 826.987 327.994 826.987 203.631 826.987C203.661 825.983 203.721 824.949 203.721 823.945C203.721 774.056 203.721 724.197 203.721 674.308C203.721 673.213 203.721 672.088 203.721 670.658C201.909 670.658 200.248 670.658 198.346 670.658C198.346 668.59 198.346 666.825 198.346 664.757C199.946 664.757 201.607 664.757 203.661 664.757C203.661 656.939 203.661 649.394 203.661 641.668C205.714 641.546 207.406 641.485 209.308 641.364C209.308 637.622 209.308 633.971 209.308 630.078C207.557 629.986 205.865 629.895 203.963 629.804C203.963 628.1 203.963 626.427 203.963 624.42C205.624 624.328 207.375 624.237 209.338 624.115C209.338 620.404 209.338 616.815 209.338 612.86C207.647 612.769 205.896 612.647 203.933 612.556C203.933 608.875 203.933 605.255 203.933 601.3C205.624 601.209 207.375 601.118 209.338 600.996C209.459 599.14 209.58 597.376 209.731 595.308C213.415 595.308 217.009 595.308 220.905 595.308C220.905 593.361 220.905 591.688 220.905 589.68C222.868 589.68 224.529 589.68 226.492 589.68C226.613 587.611 226.703 585.847 226.824 583.87C228.666 583.748 230.418 583.626 232.351 583.505C232.351 577.846 232.351 572.31 232.351 566.591C230.539 566.5 228.878 566.408 226.764 566.287C226.613 556.796 226.703 547.335 226.703 537.631C228.696 537.509 230.448 537.388 232.471 537.236C232.471 533.524 232.471 529.904 232.471 525.98C234.404 525.98 236.065 525.98 238.028 525.98C238.028 522.086 238.028 518.466 238.028 514.512C240.052 514.39 241.803 514.299 243.947 514.177C243.947 510.466 243.947 506.755 243.947 502.922C246.001 502.8 247.662 502.709 249.625 502.587C249.625 496.929 249.625 491.392 249.625 485.673C251.588 485.582 253.279 485.491 255.272 485.4C255.756 481.719 255.212 477.977 255.605 474.144C257.386 474.053 259.047 473.931 261.01 473.81C261.01 470.098 261.01 466.509 261.01 462.585C263.034 462.463 264.785 462.372 266.809 462.25C266.809 458.539 266.809 454.949 266.809 450.995C268.741 450.995 270.402 450.995 272.365 450.995C272.818 447.04 272.335 443.298 272.698 439.465C274.6 439.465 276.352 439.465 278.254 439.465C278.345 441.291 278.436 442.964 278.556 444.789C280.399 444.789 282.029 444.789 283.992 444.789C283.992 441.078 283.992 437.458 283.992 433.473C287.918 433.473 291.573 433.473 295.378 433.473C295.378 431.404 295.378 429.731 295.378 427.784C291.663 427.784 288.1 427.784 284.113 427.784C283.992 421.883 284.053 416.285 284.083 410.505C286.106 410.353 287.858 410.232 289.761 410.11C289.851 408.254 289.942 406.581 290.063 404.543C291.905 404.695 293.566 404.817 295.227 404.939C295.317 408.741 295.378 412.544 295.468 416.346C293.717 416.346 291.935 416.346 290.063 416.346C290.063 418.232 290.063 419.875 290.063 421.639C291.965 421.639 293.687 421.639 295.378 421.639C295.378 419.692 295.378 417.989 295.378 416.285C297.311 416.194 299.274 416.133 301.176 416.042C301.176 412.087 301.176 408.528 301.176 404.543C299.123 404.665 297.16 404.817 295.227 404.969ZM359.16 601.483C357.106 600.874 355.083 600.905 353.18 601.483C352.969 603.278 352.788 604.859 352.607 606.441C350.946 606.624 349.285 606.837 347.473 607.05C347.473 610.852 347.473 614.563 347.473 618.275C345.54 618.336 343.637 618.427 341.402 618.518C341.402 620.678 341.402 622.533 341.402 624.389C339.621 624.389 337.869 624.389 336.148 624.389C335.513 629.165 335.725 656.634 336.45 658.886C345.691 658.977 354.992 658.825 364.234 658.946C364.234 662.992 364.234 666.582 364.234 670.506C354.751 670.506 345.449 670.506 336.027 670.506C336.027 676.347 336.027 681.883 336.027 687.572C337.839 687.663 339.5 687.754 341.553 687.845C341.553 691.678 341.553 695.359 341.553 699.07C345.54 699.07 349.103 699.07 352.848 699.07C352.939 697.245 353.06 695.572 353.15 693.504C356.955 693.504 360.61 693.504 364.294 693.504C364.415 691.344 364.505 689.579 364.626 687.541C368.552 687.541 372.146 687.541 376.011 687.541C376.011 685.564 376.011 683.891 376.011 682.248C378.065 682.248 379.817 682.248 381.87 682.248C381.87 684.165 381.87 685.838 381.87 687.785C383.863 687.785 385.524 687.785 387.125 687.785C387.125 689.853 387.125 691.618 387.125 693.686C385.222 693.686 383.561 693.686 381.629 693.686C381.629 695.694 381.629 697.367 381.629 699.101C379.575 699.223 377.823 699.314 375.921 699.405C375.921 700.561 375.951 701.382 375.921 702.173C375.891 703.055 375.8 703.938 375.74 705.033C368.099 705.215 360.61 704.972 353.15 705.185C353.15 707.223 353.15 708.805 353.15 710.6C355.023 710.721 356.774 710.843 358.888 710.995C358.888 714.828 358.888 718.509 358.888 722.494C360.942 722.494 362.603 722.494 364.324 722.494C364.445 724.562 364.535 726.327 364.656 728.365C368.582 728.365 372.146 728.365 376.011 728.365C376.011 730.342 376.011 732.015 376.011 733.658C378.065 733.658 379.817 733.658 381.9 733.658C381.9 727.848 381.9 722.311 381.9 716.745L381.84 716.805C383.622 716.684 385.373 716.592 387.216 716.471C387.336 714.493 387.457 712.729 387.548 710.904C389.511 710.813 391.202 710.721 393.044 710.63C393.135 708.774 393.225 707.101 393.316 705.307C397.121 705.307 400.745 705.307 404.641 705.307C404.641 706.31 404.671 707.101 404.641 707.892C404.611 708.774 404.52 709.657 404.46 710.6C402.497 710.721 400.745 710.843 398.722 710.965C398.722 716.805 398.722 722.342 398.722 728.03C396.729 728.152 394.977 728.274 393.286 728.395C393.165 730.373 393.074 732.046 392.954 733.749C390.991 733.841 389.299 733.932 387.518 734.023C387.518 736 387.518 737.734 387.518 739.773C391.293 739.773 394.886 739.773 398.631 739.773C398.722 741.719 398.812 743.393 398.933 745.248C400.836 745.37 402.587 745.491 404.46 745.613C404.581 747.56 404.701 749.324 404.822 751.089C406.725 751.089 408.386 751.089 410.137 751.089C410.258 749.111 410.379 747.347 410.47 745.552C412.463 745.461 414.124 745.37 415.875 745.279C415.875 741.415 415.875 737.734 415.875 733.993C413.973 733.901 412.282 733.81 410.439 733.719C410.439 731.863 410.439 730.221 410.439 728.365C412.312 728.243 414.063 728.122 415.936 728C416.056 726.053 416.177 724.289 416.298 722.403C418.201 722.311 419.862 722.251 421.553 722.159C421.553 720.212 421.553 718.539 421.553 716.745C419.711 716.653 418.05 716.562 416.328 716.471C416.328 714.493 416.328 712.729 416.328 710.904C420.103 710.904 423.667 710.904 427.623 710.904C427.623 716.684 427.623 722.281 427.623 728C435.384 728 442.783 728 450.394 728C450.484 724.137 450.575 720.395 450.696 716.684L450.635 716.745C456.222 716.745 461.809 716.745 467.487 716.745C467.487 718.631 467.487 720.304 467.487 722.129C465.675 722.22 464.014 722.311 462.202 722.433C462.202 724.35 462.202 726.114 462.202 728.03C464.044 728.122 465.705 728.213 467.487 728.304C467.577 730.16 467.698 731.833 467.789 733.932C469.933 733.78 471.866 733.628 473.799 733.476C473.648 735.422 473.497 737.4 473.346 739.529C477.362 739.529 480.986 739.529 484.973 739.529C484.973 737.461 484.973 735.575 484.973 733.689C486.785 733.689 488.597 733.689 490.439 733.689C490.439 731.65 490.439 729.977 490.439 728.304C492.372 728.213 494.304 728.091 496.358 727.97C496.358 726.327 496.328 725.049 496.358 723.741C496.449 721.46 496.569 719.178 496.66 716.897C498.321 716.714 499.982 716.562 501.824 716.349C501.824 714.524 501.824 712.759 501.824 710.873C499.982 710.873 498.351 710.873 496.267 710.873C496.418 713.033 496.569 714.98 496.72 716.957C494.788 716.805 492.825 716.653 490.499 716.471C490.499 720.73 490.499 724.532 490.499 728.335C488.657 728.091 486.815 727.848 485.033 728.487C485.033 730.342 485.033 732.046 485.033 733.749C481.258 733.658 477.483 733.597 473.738 733.506C473.617 731.833 473.497 730.16 473.346 728.304C475.369 728.182 477.03 728.122 478.872 728C478.993 726.084 479.114 724.319 479.235 722.433C481.167 722.311 482.919 722.19 484.701 722.068C484.701 718.205 484.701 714.615 484.701 710.63C480.865 710.63 477.211 710.63 473.527 710.63C473.436 708.561 473.346 706.888 473.285 705.154C471.201 705.033 469.45 704.942 467.698 704.85C467.608 702.782 467.517 701.109 467.457 699.283C465.554 699.192 463.893 699.101 462.111 699.01C462.111 697.124 462.111 695.481 462.111 693.838C465.645 693.23 476.819 693.351 478.933 693.99C479.023 695.663 479.144 697.337 479.235 699.04C481.198 699.131 482.889 699.223 484.701 699.314C484.822 701.261 484.942 703.055 485.063 705.033C488.295 705.033 491.284 705.033 494.274 705.033C494.848 705.033 495.422 704.911 496.388 704.82C496.388 700.987 496.388 697.306 496.388 693.534C498.472 693.534 500.193 693.534 501.885 693.534C501.885 697.245 501.885 700.956 501.885 704.789C505.961 704.789 509.616 704.789 513.27 704.789C513.27 685.564 513.27 666.551 513.27 647.356C511.488 647.265 509.827 647.174 507.804 647.083C507.804 641.303 507.804 635.705 507.804 630.017C503.787 630.017 500.163 630.017 496.479 630.017C496.479 631.933 496.479 633.637 496.479 635.492C498.291 635.584 499.952 635.675 501.885 635.797C501.885 643.615 501.885 651.25 501.885 658.916C500.103 658.794 498.351 658.703 496.388 658.581C496.207 652.771 496.449 647.113 496.237 641.516C490.318 641.516 484.852 641.516 479.204 641.516C479.084 643.432 478.963 645.197 478.842 647.022C475.037 647.022 471.473 647.022 467.789 647.022C467.789 645.075 467.789 643.341 467.789 641.455C469.752 641.333 471.503 641.242 473.527 641.12C473.527 639.143 473.527 637.47 473.527 635.523C477.423 635.523 480.986 635.523 484.701 635.523C484.701 631.629 484.701 628.009 484.701 624.237C482.798 624.115 481.047 623.994 479.174 623.872C479.053 621.925 478.933 620.161 478.842 618.275C476.909 618.183 475.248 618.123 473.315 618.031C473.315 616.084 473.315 614.411 473.315 612.525C467.426 612.495 461.87 612.464 455.981 612.525C455.981 614.624 455.981 616.297 455.981 617.971C453.988 617.971 452.357 617.971 450.726 617.971C450.182 613.62 450.333 608.784 451.119 606.441C452.659 606.441 454.32 606.441 455.83 606.441C455.83 604.434 455.83 602.76 455.83 600.814C452.025 600.814 448.431 600.814 444.746 600.814C444.626 598.775 444.505 597.011 444.414 595.247C436.713 595.247 429.314 595.247 421.794 595.247C421.794 599.049 421.794 602.669 421.794 606.411C423.697 606.533 425.449 606.654 427.23 606.776C427.23 608.753 427.23 610.518 427.23 612.282C423.425 612.282 419.831 612.282 415.905 612.282C415.905 606.472 415.905 600.844 415.905 595.216C406.211 595.216 396.91 595.216 387.487 595.216C387.487 599.08 387.487 602.73 387.487 606.472C389.39 606.563 391.081 606.654 392.531 606.745C392.803 607.05 392.923 607.11 392.923 607.202C393.014 612.86 393.074 618.548 393.165 624.207L393.256 624.115C391.383 624.115 389.481 624.115 387.457 624.115C387.306 621.956 387.216 620.191 387.095 618.275C385.253 618.183 383.592 618.092 381.78 618.031C381.689 616.176 381.598 614.503 381.478 612.677C379.575 612.556 377.823 612.434 375.951 612.312C375.83 610.365 375.709 608.601 375.619 606.806C371.783 606.806 368.22 606.806 364.505 606.806C364.384 608.723 364.264 610.487 364.143 612.373C362.27 612.495 360.61 612.586 358.828 612.677C358.737 614.533 358.647 616.206 358.556 618.123C356.472 618.123 354.6 618.123 352.727 618.123C352.637 614.168 352.576 610.213 352.486 606.259C354.479 606.928 356.472 606.715 358.496 606.38C358.677 604.555 358.858 602.913 359.009 601.27C360.67 601.087 362.331 600.935 364.173 600.722C364.173 598.897 364.173 597.133 364.173 595.247C362.331 595.247 360.7 595.247 358.616 595.247C358.858 597.559 359.009 599.505 359.16 601.483ZM490.378 618.336C490.62 616.48 490.862 614.624 490.227 612.829C488.385 612.829 486.694 612.829 485.033 612.829C485.033 609.027 485.033 605.224 485.033 601.331C480.956 601.331 477.332 601.331 473.648 601.331C473.648 603.186 473.648 604.859 473.648 606.654C475.46 606.745 477.121 606.837 478.933 606.928C479.053 608.844 479.174 610.609 479.325 612.738C481.379 612.738 483.251 612.738 485.124 612.738C484.973 614.594 484.701 616.419 485.335 618.244C487.117 618.244 488.808 618.244 490.469 618.244C490.56 620.13 490.65 622.016 490.741 624.024C492.674 624.024 494.395 624.024 496.207 624.024C496.207 622.077 496.207 620.343 496.207 618.336C494.123 618.336 492.251 618.336 490.378 618.336ZM364.113 271.242C360.489 271.425 356.835 271.607 353.211 271.759C353.211 273.737 353.211 275.471 353.211 277.265C357.016 277.265 360.549 277.265 364.536 277.265C364.385 275.106 364.234 273.159 364.083 271.212C366.045 271.364 367.978 271.486 370.122 271.668C370.122 269.599 370.122 267.926 370.122 266.101C368.25 266.101 366.498 266.101 364.686 266.101C364.445 267.896 364.264 269.569 364.113 271.242ZM387.004 583.292C387.789 583.413 388.575 583.657 389.36 583.657C395.672 583.687 401.983 583.687 408.295 583.657C408.869 583.657 409.443 583.565 410.077 583.535C410.077 581.618 410.077 579.885 410.077 578.181C402.92 577.603 389.541 577.846 387.548 578.576C387.397 580.189 387.216 581.771 387.065 583.383C385.404 583.565 383.743 583.717 381.9 583.93C381.9 585.756 381.9 587.52 381.9 589.406C383.743 589.406 385.373 589.406 387.457 589.406C387.276 587.216 387.125 585.269 387.004 583.292ZM341.312 433.32C341.312 431.526 341.312 429.761 341.312 427.875C339.439 427.875 337.809 427.875 336.057 427.875C336.057 429.792 336.057 431.526 336.057 433.26C337.99 433.26 339.681 433.26 341.372 433.26C341.372 435.146 341.372 437.062 341.372 439.07C349.254 439.07 356.714 439.07 364.234 439.07C364.234 437.153 364.234 435.45 364.234 433.381C360.459 433.381 356.804 433.381 353.029 433.381C352.939 431.313 352.848 429.64 352.758 427.936C350.855 427.936 349.194 427.936 347.382 427.936C347.291 429.761 347.201 431.465 347.11 433.381C345.087 433.32 343.214 433.32 341.312 433.32ZM393.286 439.435C393.195 437.458 393.105 435.511 393.014 433.625C389.058 433.625 385.494 433.625 381.991 433.625C381.991 435.602 381.991 437.366 381.991 439.374C385.947 439.374 389.662 439.374 393.346 439.374C393.346 441.138 393.346 442.933 393.346 444.667C397.453 445.245 413.761 445.093 415.936 444.485C415.936 440.895 415.936 437.305 415.936 433.625C410.198 433.625 404.641 433.625 398.963 433.625C398.843 435.602 398.752 437.366 398.631 439.161C396.668 439.252 394.977 439.344 393.286 439.435ZM444.626 433.32C442.844 433.381 441.062 433.442 439.22 433.503C439.099 435.541 438.978 437.305 438.888 439.131C436.894 439.222 435.233 439.313 433.421 439.404C433.361 440.348 433.27 441.138 433.27 441.929C433.27 442.812 433.361 443.694 433.391 444.758C446.77 444.758 459.967 444.758 473.315 444.758C473.315 442.903 473.315 441.26 473.315 439.222C467.577 439.222 462.021 439.222 456.343 439.222C456.222 437.093 456.102 435.328 455.981 433.32C454.018 433.32 452.296 433.32 450.605 433.32C450.605 431.526 450.605 429.761 450.605 427.845C452.508 427.754 454.169 427.662 455.981 427.571C455.981 425.624 455.981 423.89 455.981 421.974C454.169 421.883 452.508 421.791 450.454 421.7C450.454 419.814 450.454 418.08 450.454 416.316C448.37 416.316 446.709 416.316 444.626 416.316C444.626 422.095 444.626 427.723 444.626 433.32ZM393.376 266.04C392.682 274.619 393.014 321.374 393.739 323.504C395.309 323.504 396.88 323.504 398.843 323.504C398.843 308.142 398.843 292.901 398.843 277.63C400.957 277.478 402.708 277.357 404.399 277.235C404.399 275.197 404.399 273.463 404.399 271.668C402.467 271.577 400.806 271.486 398.963 271.394C398.873 269.508 398.782 267.835 398.692 266.04C396.849 266.04 395.219 266.04 393.376 266.04ZM415.966 266.101C414.003 266.101 412.281 266.101 410.56 266.101C409.956 271.151 410.167 321.374 410.802 323.504C412.463 323.504 414.124 323.504 415.966 323.504C415.966 304.339 415.966 285.388 415.966 266.101ZM243.887 710.661C243.887 702.903 243.887 695.45 243.887 687.876C241.984 687.754 240.233 687.633 238.089 687.48C238.089 683.617 238.089 679.936 238.089 676.134C236.488 676.134 235.28 676.134 234.102 676.134C233.71 676.134 233.347 676.225 232.773 676.316C232.773 687.785 232.773 699.131 232.773 710.63C236.518 710.66 240.082 710.661 243.887 710.661ZM450.484 739.712C452.629 739.712 454.29 739.712 455.951 739.712C455.951 737.643 455.951 735.879 455.951 734.145C448.31 734.145 440.941 734.145 433.331 734.145C433.21 738.008 433.21 741.659 433.301 745.613C437.317 745.613 440.881 745.613 444.535 745.613C444.656 747.682 444.777 749.446 444.897 751.211C446.86 751.211 448.521 751.211 450.484 751.211C450.484 747.438 450.484 743.849 450.484 739.712ZM226.945 728.426C226.945 736.183 226.945 743.636 226.945 751.15C230.78 751.15 234.404 751.15 238.058 751.15C238.058 743.453 238.058 736.031 238.058 728.426C234.344 728.426 230.75 728.426 226.945 728.426ZM381.478 306.104C382.112 300.111 381.87 273.797 381.206 271.759C379.545 271.759 377.884 271.759 376.102 271.759C376.102 283.319 376.102 294.666 376.102 306.256C377.189 306.256 378.095 306.286 378.971 306.256C379.756 306.225 380.541 306.134 381.478 306.104ZM358.979 294.818C358.979 306.377 358.979 317.724 358.979 329.345C360.157 329.345 361.123 329.345 362.089 329.345C362.754 329.345 363.448 329.284 364.234 329.223C364.234 317.663 364.234 306.317 364.234 294.818C362.482 294.818 360.912 294.818 358.979 294.818ZM502.277 589.68C502.277 599.414 502.277 608.753 502.277 618.092C504.24 618.092 505.962 618.092 507.713 618.092C507.713 608.479 507.713 599.14 507.713 589.68C505.811 589.68 504.119 589.68 502.277 589.68ZM330.198 578.12C330.198 587.855 330.198 597.194 330.198 606.533C332.161 606.533 333.883 606.533 335.634 606.533C335.634 596.92 335.634 587.581 335.634 578.12C333.762 578.12 332.071 578.12 330.198 578.12ZM519.129 520.079C519.129 516.124 519.129 512.474 519.129 508.823C515.323 508.823 511.76 508.823 507.985 508.823C507.925 512.656 507.743 516.337 508.106 520.079C511.881 520.079 515.354 520.079 519.129 520.079ZM232.834 659.068C232.834 662.901 232.834 666.551 232.834 670.476C236.035 670.476 239.025 670.476 242.015 670.476C242.588 670.476 243.162 670.354 243.857 670.293C243.857 666.46 243.857 662.81 243.857 659.068C240.082 659.068 236.488 659.068 232.834 659.068ZM318.269 508.519C318.813 504.199 318.662 493.522 317.997 491.18C317.273 491.18 316.487 491.149 315.702 491.18C314.826 491.21 313.981 491.301 313.045 491.362C312.924 493.4 312.833 495.165 312.743 496.929C310.719 497.02 309.058 497.111 307.246 497.203C307.246 499.089 307.246 500.731 307.246 502.557C309.149 502.678 310.901 502.8 312.773 502.922C312.894 504.899 312.984 506.663 313.105 508.489C314.947 508.519 316.518 508.519 318.269 508.519ZM439.19 589.345C445.018 589.345 450.484 589.345 455.92 589.345C455.92 587.368 455.92 585.634 455.92 583.87C450.213 583.87 444.746 583.87 439.19 583.87C439.19 585.786 439.19 587.459 439.19 589.345ZM547.819 560.72C543.923 560.72 540.359 560.72 536.675 560.72C536.675 562.636 536.675 564.37 536.675 566.226C540.48 566.226 544.134 566.226 547.819 566.226C547.819 564.309 547.819 562.636 547.819 560.72ZM324.551 398.885C324.551 400.801 324.551 402.535 324.551 404.361C328.356 404.361 331.98 404.361 335.604 404.361C335.604 402.383 335.604 400.649 335.604 398.885C331.799 398.885 328.235 398.885 324.551 398.885ZM376.042 410.08C377.944 410.08 379.666 410.08 381.478 410.08C381.478 406.247 381.478 402.596 381.478 398.946C379.515 398.946 377.793 398.946 376.042 398.946C376.042 402.779 376.042 406.368 376.042 410.08ZM324.309 543.137C324.43 539.426 324.4 535.684 324.309 532.003C322.195 532.003 320.474 532.003 318.722 532.003C318.722 535.836 318.722 539.395 318.722 543.137C320.534 543.137 322.195 543.137 324.309 543.137ZM519.37 560.416C519.37 558.256 519.4 556.461 519.37 554.697C519.34 552.841 519.28 550.985 519.219 549.16C517.166 549.16 515.505 549.16 513.753 549.16C513.753 552.993 513.753 556.644 513.753 560.416C515.625 560.416 517.286 560.416 519.37 560.416ZM238.481 555.001C238.481 558.925 238.481 562.575 238.481 566.135C240.444 566.135 242.196 566.135 243.887 566.135C243.887 562.271 243.887 558.712 243.887 555.001C242.045 555.001 240.384 555.001 238.481 555.001ZM301.599 433.381C303.713 433.381 305.495 433.412 307.277 433.381C309.119 433.351 310.961 433.29 312.652 433.229C312.652 431.161 312.652 429.518 312.652 427.875C308.847 427.875 305.283 427.875 301.599 427.875C301.599 429.7 301.599 431.343 301.599 433.381ZM243.917 624.42C240.142 624.42 236.518 624.42 232.834 624.42C232.834 626.306 232.834 628.009 232.834 629.895C234.857 629.895 236.639 629.926 238.421 629.895C240.263 629.865 242.105 629.804 243.917 629.743C243.917 627.766 243.917 626.184 243.917 624.42ZM392.984 566.256C392.984 564.279 392.984 562.545 392.984 560.811C391.021 560.811 389.299 560.811 387.548 560.811C387.548 562.728 387.548 564.431 387.548 566.256C389.36 566.256 391.021 566.256 392.984 566.256ZM416.056 329.558C414.063 329.558 412.312 329.558 410.53 329.558C410.53 331.504 410.53 333.269 410.53 334.972C412.493 334.972 414.244 334.972 416.056 334.972C416.056 333.117 416.056 331.504 416.056 329.558ZM490.831 595.399C490.831 597.406 490.831 599.14 490.831 600.844C492.794 600.844 494.546 600.844 496.267 600.844C496.267 598.897 496.267 597.224 496.267 595.399C494.425 595.399 492.764 595.399 490.831 595.399ZM370.485 433.503C370.485 435.572 370.485 437.306 370.485 439.039C372.387 439.039 374.018 439.039 375.649 439.039C375.649 437.062 375.649 435.328 375.649 433.503C373.837 433.503 372.267 433.503 370.485 433.503ZM307.186 386.899C309.24 386.899 310.961 386.899 312.682 386.899C312.682 384.983 312.682 383.34 312.682 381.728C310.719 381.728 308.998 381.728 307.186 381.728C307.186 383.553 307.186 385.135 307.186 386.899ZM456.011 398.763C454.229 398.763 452.84 398.733 451.451 398.794C451.179 398.794 450.937 399.037 450.786 399.098C450.786 400.953 450.786 402.718 450.786 404.361C452.719 404.361 454.35 404.361 455.981 404.361C456.011 402.414 456.011 400.741 456.011 398.763ZM324.128 433.26C324.128 431.495 324.128 429.761 324.128 427.936C322.256 427.936 320.504 427.936 318.692 427.936C318.692 429.792 318.692 431.465 318.692 433.26C320.564 433.26 322.256 433.26 324.128 433.26ZM421.945 439.465C421.945 441.321 421.945 442.964 421.945 444.758C423.848 444.758 425.6 444.758 427.442 444.758C427.442 442.903 427.442 441.26 427.442 439.465C425.509 439.465 423.788 439.465 421.945 439.465ZM462.111 456.318C464.074 456.318 465.735 456.318 467.396 456.318C467.396 454.402 467.396 452.668 467.396 451.055C465.494 451.055 463.833 451.055 462.111 451.055C462.111 452.881 462.111 454.493 462.111 456.318ZM473.587 571.945C475.55 571.945 477.181 571.945 478.872 571.945C478.872 570.028 478.872 568.294 478.872 566.682C476.97 566.682 475.309 566.682 473.587 566.682C473.587 568.477 473.587 570.059 473.587 571.945ZM427.865 404.726C427.865 406.52 427.865 408.315 427.865 410.049C429.737 410.049 431.398 410.049 433.059 410.049C433.059 408.163 433.059 406.49 433.059 404.726C431.277 404.726 429.707 404.726 427.865 404.726ZM352.758 595.125C352.758 593.148 352.758 591.475 352.758 589.801C350.855 589.801 349.134 589.801 347.533 589.801C347.533 591.718 347.533 593.391 347.533 595.125C349.345 595.125 350.946 595.125 352.758 595.125ZM370.334 595.064C372.297 595.064 373.928 595.064 375.619 595.064C375.619 593.148 375.619 591.414 375.619 589.801C373.716 589.801 372.055 589.801 370.334 589.801C370.334 591.596 370.334 593.178 370.334 595.064Z" fill="var(--fill-0, #312E2E)"/>
<path id="Vector_2" d="M370.032 17.1127C368.159 17.2039 366.498 17.2952 364.596 17.3864C364.475 19.2725 364.354 21.0369 364.233 22.9533C362.452 22.9533 360.791 22.9533 358.858 22.9533C358.858 19.2421 358.858 15.6221 358.858 11.7587C356.834 11.637 355.113 11.5458 353.15 11.4241C353.15 9.53806 353.15 7.80411 353.15 5.82681C354.932 5.73555 356.593 5.64429 358.586 5.55303C358.646 4.67084 358.737 3.78866 358.767 2.9369C358.797 2.14597 358.767 1.32463 358.767 0.10783C362.512 -0.0746903 366.166 0.0165682 370.032 0.0774084C370.032 5.73555 370.032 11.2416 370.032 17.1127Z" fill="var(--fill-0, #312E2E)"/>
<path id="Vector_3" d="M530.574 161.7C528.732 161.7 527.071 161.7 525.199 161.7C525.199 159.813 525.199 158.08 525.199 156.133C526.981 156.133 528.672 156.133 530.574 156.133C530.574 157.867 530.574 159.631 530.574 161.7Z" fill="var(--fill-0, #312E2E)"/>
<path id="Vector_4" d="M5.37556 161.7C3.53336 161.7 1.87239 161.7 0 161.7C0 159.813 0 158.08 0 156.133C1.78179 156.133 3.47296 156.133 5.37556 156.133C5.37556 157.867 5.37556 159.631 5.37556 161.7Z" fill="var(--fill-0, #312E2E)"/>
<path id="Vector_5" d="M622.412 178.887C620.57 178.887 618.818 178.887 616.916 178.887C616.916 177.122 616.916 175.449 616.916 173.594C618.758 173.594 620.48 173.594 622.412 173.594C622.412 175.388 622.412 177.031 622.412 178.887Z" fill="var(--fill-0, #312E2E)"/>
<path id="Vector_6" d="M657.082 121.21C658.833 121.21 660.585 121.21 662.488 121.21C662.488 123.37 662.488 125.104 662.488 127.264C660.585 127.264 658.833 127.264 657.082 127.264L657.172 127.325C657.172 125.256 657.172 123.188 657.172 121.119L657.082 121.21Z" fill="var(--fill-0, #312E2E)"/>
<path id="Vector_7" d="M559.295 531.943C559.295 533.738 559.295 535.319 559.295 537.175C557.573 537.175 555.852 537.175 553.949 537.175C553.949 535.471 553.949 533.829 553.949 531.943C555.671 531.943 557.301 531.943 559.295 531.943Z" fill="var(--fill-0, #312E2E)"/>
<path id="Vector_8" d="M404.943 641.181C406.604 641.333 408.295 641.485 410.167 641.668C410.258 643.432 410.349 645.136 410.439 647.143C412.221 647.265 413.973 647.356 416.117 647.478C416.117 651.22 416.117 654.901 416.117 658.733C418.17 658.825 419.831 658.916 421.643 659.007C421.734 660.863 421.825 662.536 421.945 664.392C423.757 664.483 425.449 664.574 427.442 664.665C427.563 666.46 427.653 668.255 427.804 670.293C431.428 670.293 435.022 670.293 439.008 670.293C439.159 674.248 439.129 677.928 439.008 681.792C437.106 681.883 435.415 681.974 433.452 682.066C433.331 683.769 433.24 685.442 433.119 687.359C431.398 687.359 429.677 687.359 427.774 687.359C427.683 685.655 427.593 683.952 427.502 682.096C425.69 682.005 423.999 681.914 422.006 681.822C421.915 680.028 421.794 678.263 421.674 676.195C419.952 676.195 418.291 676.195 416.298 676.195C416.298 674.248 416.298 672.575 416.298 670.567C414.244 670.445 412.523 670.354 410.53 670.232C410.409 668.377 410.288 666.612 410.167 664.635C408.386 664.544 406.725 664.452 404.882 664.361C404.792 662.566 404.671 660.893 404.55 658.825C398.873 658.825 393.316 658.825 387.578 658.825C387.578 654.84 387.578 651.25 387.578 647.448C391.262 647.448 394.826 647.448 398.722 647.448C398.722 649.06 398.722 650.733 398.722 652.649C400.775 652.649 402.527 652.649 404.701 652.649C404.701 651.128 404.671 649.516 404.701 647.934C404.792 645.622 404.913 643.31 405.033 640.999C405.003 641.12 404.943 641.181 404.943 641.181Z" fill="var(--fill-0, #312E2E)"/>
<path id="Vector_9" d="M501.915 658.977C503.787 658.977 505.659 658.977 507.713 658.977C507.713 670.506 507.713 681.761 507.713 693.382C505.81 693.503 503.847 693.625 501.884 693.747C501.884 687.997 501.884 682.248 501.884 676.225C490.499 676.225 479.295 676.225 467.849 676.225C467.849 674.278 467.849 672.605 467.849 670.506C479.144 670.445 490.408 670.506 501.884 670.445C501.915 666.399 501.915 662.688 501.915 658.977Z" fill="var(--fill-0, #312E2E)"/>
<path id="Vector_10" d="M341.342 624.298C343.214 624.298 345.117 624.298 347.382 624.298C347.382 621.986 347.382 620.1 347.382 618.214C349.224 618.214 351.036 618.214 352.878 618.214C352.878 620.1 352.878 622.016 352.878 624.085C354.962 624.207 356.623 624.298 358.616 624.389C358.707 626.093 358.797 627.766 358.888 629.834C362.542 629.834 366.196 629.834 370.032 629.834C370.032 631.903 370.032 633.576 370.032 635.279C368.008 635.918 357.62 636.101 353.12 635.523C352.999 633.819 352.878 632.055 352.758 630.108C351.006 630.108 349.345 630.108 347.382 630.108C347.382 633.789 347.382 637.409 347.382 641.242C345.328 641.242 343.607 641.242 341.584 641.242C341.493 635.584 341.402 629.925 341.342 624.298Z" fill="var(--fill-0, #312E2E)"/>
<path id="Vector_11" d="M393.256 624.389C394.947 624.389 396.638 624.389 398.661 624.389C398.661 626.062 398.661 627.705 398.661 629.713C400.685 629.834 402.436 629.926 404.46 630.047C404.611 633.819 404.762 637.5 404.913 641.212C404.913 641.212 405.003 641.151 405.003 641.12C403.071 641.242 401.138 641.394 398.963 641.546C398.873 639.508 398.782 637.835 398.692 635.918C396.94 635.827 395.309 635.766 393.225 635.675C393.165 631.842 393.044 628.07 393.316 624.298C393.346 624.298 393.256 624.389 393.256 624.389Z" fill="var(--fill-0, #312E2E)"/>
<path id="Vector_12" d="M450.696 716.775C448.823 716.775 446.921 716.775 444.897 716.775C444.897 712.759 444.897 709.17 444.897 705.367C446.679 705.367 448.431 705.367 450.454 705.367C450.515 709.231 450.575 713.033 450.635 716.866L450.696 716.775Z" fill="var(--fill-0, #312E2E)"/>
<path id="Vector_13" d="M381.87 716.775C379.998 716.775 378.125 716.775 376.072 716.775C376.072 714.646 376.072 712.912 376.072 710.995C377.884 710.995 379.545 710.995 381.538 710.995C381.629 712.942 381.719 714.889 381.78 716.866C381.81 716.866 381.87 716.775 381.87 716.775Z" fill="var(--fill-0, #312E2E)"/>
<path id="Vector_14" d="M416.328 618.518C418.11 618.518 419.771 618.518 421.583 618.518C421.583 620.404 421.583 622.138 421.583 624.054C419.801 624.054 418.14 624.054 416.328 624.054C416.328 622.168 416.328 620.434 416.328 618.518Z" fill="var(--fill-0, #312E2E)"/>
<path id="Vector_15" d="M370.485 664.696C372.327 664.696 373.897 664.696 375.679 664.696C375.679 666.551 375.679 668.316 375.679 670.263C374.018 670.263 372.357 670.263 370.485 670.263C370.485 668.468 370.485 666.734 370.485 664.696Z" fill="var(--fill-0, #312E2E)"/>
<path id="Vector_16" d="M444.565 433.229C446.619 433.229 448.672 433.229 450.726 433.229C450.635 435.115 450.515 437.001 450.424 439.07C448.612 439.07 446.951 439.07 444.958 439.07C444.807 437.153 444.686 435.206 444.565 433.229Z" fill="var(--fill-0, #312E2E)"/>
</g>
</svg>
